<?xml version="1.0" standalone="no"?>
<!DOCTYPE svg PUBLIC "-//W3C//DTD SVG 20010904//EN"
 "http://www.w3.org/TR/2001/REC-SVG-20010904/DTD/svg10.dtd">
<svg version="1.0" xmlns="http://www.w3.org/2000/svg"
 width="500.000000pt" height="500.000000pt" viewBox="0 0 500.000000 500.000000"
 preserveAspectRatio="xMidYMid meet">
<metadata>
Created by potrace 1.11, written by Peter Selinger 2001-2013
</metadata>
<g transform="translate(0.000000,500.000000) scale(0.100000,-0.100000)"
fill="#000000" stroke="none">
<path d="M2260 4974 c-544 -65 -988 -255 -1375 -586 -456 -391 -741 -904 -842
-1513 -26 -157 -26 -583 0 -740 101 -609 386 -1122 842 -1513 351 -301 764
-490 1240 -569 157 -26 583 -26 740 0 476 79 889 268 1240 569 456 391 741
904 842 1513 26 157 26 583 0 740 -101 609 -386 1122 -842 1513 -344 295 -751
484 -1210 563 -93 17 -173 22 -360 24 -132 2 -256 1 -275 -1z m58 -1379 c144
-34 263 -117 343 -240 l40 -63 97 97 c81 81 111 105 182 139 134 66 219 85
390 85 116 0 161 -5 223 -21 212 -58 356 -196 423 -407 52 -163 54 -208 54
-1037 l0 -768 -290 0 -290 0 0 713 c0 391 -5 745 -10 785 -26 201 -131 282
-352 270 -73 -4 -105 -11 -148 -31 -65 -31 -138 -103 -174 -171 l-26 -49 0
-758 0 -759 -290 0 -290 0 0 743 c0 519 -3 761 -11 801 -19 91 -63 155 -133
191 -57 29 -65 30 -185 30 -115 0 -131 -2 -181 -26 -66 -31 -120 -76 -161
-135 l-29 -43 0 -780 0 -781 -290 0 -290 0 0 1100 0 1100 274 0 273 0 8 -120
c4 -66 10 -120 14 -120 4 0 25 19 46 42 120 126 273 202 456 228 82 11 244 4
327 -15z"/>
</g>
</svg>
